<?xml version="1.0" standalone="no"?>
<!DOCTYPE svg PUBLIC "-//W3C//DTD SVG 20010904//EN"
 "http://www.w3.org/TR/2001/REC-SVG-20010904/DTD/svg10.dtd">
<svg version="1.0" xmlns="http://www.w3.org/2000/svg"
 width="160.000000pt" height="160.000000pt" viewBox="0 0 160.000000 160.000000"
 preserveAspectRatio="xMidYMid meet">
<metadata>
Created by potrace 1.12, written by Peter Selinger 2001-2015
</metadata>
<g transform="translate(0.000000,160.000000) scale(0.100000,-0.100000)"
fill="#000000" stroke="none">
<path d="M780 1233 c6 -3 4 -10 -4 -19 -10 -10 -38 -14 -89 -14 -83 0 -104
-12 -93 -54 7 -29 41 -43 61 -26 10 8 19 8 34 1 21 -12 51 -5 51 12 0 5 8 3
18 -6 23 -21 31 -21 54 0 10 9 18 11 18 5 0 -16 39 -25 55 -12 10 8 19 8 34 0
34 -17 63 4 59 43 l-3 32 -90 5 c-69 4 -90 8 -90 19 0 8 -6 15 -13 17 -7 1 -8
0 -2 -3z"/>
<path d="M562 998 c-7 -7 -12 -18 -12 -24 0 -7 -12 -14 -27 -16 -24 -3 -28 -8
-31 -40 -4 -44 23 -66 54 -44 15 11 20 11 32 0 17 -18 28 -18 44 0 11 12 15
12 30 -1 16 -14 20 -14 43 1 14 9 25 12 25 7 0 -17 33 -22 49 -7 13 14 17 14
33 -1 16 -14 20 -14 43 1 14 9 25 12 25 7 0 -17 33 -22 49 -7 13 14 17 14 32
0 14 -12 22 -13 38 -4 16 8 27 8 42 -1 18 -9 25 -7 42 10 29 28 14 75 -25 79
-18 2 -28 11 -32 28 -4 13 -10 24 -15 24 -14 0 -33 -28 -26 -40 4 -6 -12 -10
-44 -10 -37 0 -51 4 -51 14 0 24 -26 38 -40 22 -6 -9 -9 -20 -5 -26 4 -6 -12
-10 -44 -10 -37 0 -51 4 -51 14 0 24 -26 38 -40 22 -6 -9 -9 -20 -5 -26 4 -6
-11 -10 -43 -10 -45 0 -50 3 -56 25 -7 28 -16 31 -34 13z"/>
<path d="M492 698 c-6 -6 -12 -18 -12 -25 0 -7 -11 -13 -23 -13 -50 0 -75 -69
-35 -94 14 -8 24 -7 40 3 16 10 23 10 26 2 5 -14 45 -14 59 0 8 8 13 8 17 0 9
-14 53 -14 58 0 3 8 10 8 26 -2 18 -11 26 -11 42 -2 12 8 21 9 25 3 9 -14 52
-13 57 1 3 8 10 8 26 -2 19 -12 25 -12 44 0 16 10 23 10 26 2 5 -14 48 -15 57
-1 4 6 13 5 25 -3 16 -9 24 -9 42 2 16 10 23 10 26 2 5 -14 45 -14 59 0 8 8
13 8 17 0 11 -17 53 -13 60 5 18 46 -1 84 -41 84 -13 0 -23 6 -23 14 0 7 -7
19 -15 26 -12 10 -17 7 -26 -14 -10 -22 -19 -26 -54 -26 -36 0 -44 4 -54 27
-12 27 -13 27 -27 8 -8 -10 -14 -22 -14 -27 0 -4 -20 -8 -43 -8 -38 0 -45 4
-56 27 -12 27 -13 27 -27 8 -8 -10 -14 -22 -14 -27 0 -4 -20 -8 -43 -8 -37 0
-46 4 -56 26 -9 21 -14 24 -26 14 -8 -7 -15 -19 -15 -26 0 -10 -13 -14 -45
-14 -25 0 -45 4 -45 8 0 5 -6 16 -13 25 -10 14 -15 15 -25 5z"/>
</g>
</svg>
